<svg width="123" height="24" fill="none" xmlns="http://www.w3.org/2000/svg"><path d="M6.324 11.25H4.38V18H.266V.937h4.113v6.598H5.96L9.242.937h4.98L9.536 8.813 14.81 18H9.945l-3.62-6.75zm16.7-5.93h3.96V18h-3.96v-7.383L19.542 18H15.57V5.32h3.973v7.36l3.48-7.36zM40.39 18h-3.96v-4.7h-3.457V18h-3.95V5.32h3.95v4.946h3.457V5.32h3.96V18zm1.664-6.457c0-1.266.246-2.39.738-3.375.492-.992 1.2-1.754 2.121-2.285.922-.531 2.004-.797 3.246-.797 1.899 0 3.395.59 4.488 1.77 1.094 1.171 1.641 2.769 1.641 4.792v.141c0 1.977-.55 3.547-1.652 4.711-1.094 1.156-2.578 1.734-4.453 1.734-1.805 0-3.254-.539-4.348-1.617-1.094-1.086-1.684-2.555-1.77-4.406l-.011-.668zm3.949.246c0 1.172.184 2.031.55 2.578.368.547.91.82 1.63.82 1.406 0 2.125-1.082 2.156-3.246v-.398c0-2.273-.727-3.41-2.18-3.41-1.32 0-2.035.98-2.144 2.941l-.012.715zM70.543 18H66.43V4.113H60.3V18h-4.112V.937h14.355V18zm7.453-5.531l2.11-7.149h4.23l-5.168 14.801-.223.54c-.734 1.64-2.03 2.46-3.89 2.46a6.165 6.165 0 01-1.63-.234v-2.825h.516c.555 0 .977-.082 1.266-.246.297-.156.516-.441.656-.855l.317-.844L71.773 5.32h4.22l2.003 7.149zM96.207 5.32V18h-3.95V8.367h-2.366l-.211 3.88c-.149 1.921-.582 3.358-1.301 4.312-.719.953-1.785 1.433-3.2 1.441h-1.242l-.046-3.023.41-.047c.523-.063.91-.41 1.16-1.043.258-.64.422-1.606.492-2.895L86.2 5.32h10.008zm6.387 3.48h2.027c1.172 0 2.203.192 3.094.575.89.383 1.57.926 2.039 1.629.469.703.703 1.52.703 2.45 0 1.366-.531 2.468-1.594 3.304-1.054.828-2.496 1.242-4.324 1.242h-5.918V5.32h3.973V8.8zm0 3.036v3.14h2.004c.601 0 1.07-.136 1.406-.41.344-.28.516-.66.516-1.136 0-.47-.153-.852-.458-1.149-.304-.297-.792-.445-1.464-.445h-2.004zm14.695 3.351c.555 0 .984-.148 1.289-.445.305-.305.453-.726.445-1.265h3.704c0 1.39-.5 2.53-1.5 3.421-.993.891-2.274 1.336-3.844 1.336-1.844 0-3.297-.578-4.36-1.734-1.062-1.156-1.593-2.758-1.593-4.805v-.164c0-1.281.234-2.41.703-3.386.476-.985 1.16-1.739 2.051-2.262.89-.531 1.945-.797 3.164-.797 1.648 0 2.957.457 3.925 1.371.969.914 1.454 2.152 1.454 3.715h-3.704c0-.656-.16-1.16-.48-1.512-.32-.351-.75-.527-1.289-.527-1.024 0-1.621.652-1.793 1.957-.055.414-.082.984-.082 1.71 0 1.274.152 2.157.457 2.65.305.491.789.738 1.453.738z" fill="#fff"/></svg>